<svg id="Layer_1" data-name="Layer 1" xmlns="http://www.w3.org/2000/svg" viewBox="0 0 1138.91 2166.33"><defs><style>.cls-1{fill:#fcfcfc;stroke:#63a0f1;stroke-miterlimit:10;stroke-width:5px;}</style></defs><polygon class="cls-1" points="551.06 400.32 526.06 423.32 528.06 442.32 515.06 454.32 517.06 465.32 495.07 495.32 469.07 509.32 512.07 550.32 553.06 557.32 579.06 570.32 693.06 537.32 700.06 559.32 712.06 562.32 714.06 579.32 723.06 588.32 710.06 617.32 716.06 632.32 758.06 612.32 798.06 572.32 807.06 572.32 820.06 553.32 828.06 539.32 816.06 533.32 823.06 504.32 844.06 483.32 847.06 455.32 854.06 442.32 843.06 439.32 844.06 404.32 864.06 403.32 878.06 409.32 877.06 414.32 886.06 412.32 890.06 401.32 878.06 393.32 875.06 384.32 882.06 371.32 882.06 340.32 870.06 338.32 868.06 319.32 861.06 321.32 845.06 314.32 834.06 317.32 830.06 308.32 809.06 311.32 788.06 295.32 778.06 303.32 781.06 288.32 768.06 272.32 749.06 278.32 733.06 291.32 740.06 255.32 730.24 245.38 636.98 351.95 639.98 371.95 627.98 391.95 589.98 410.95 574.98 391.95 551.06 400.32"/><polygon class="cls-1" points="971.56 510.82 962.56 531.82 961.56 555.82 983.56 552.82 988.56 568.82 1006.56 556.82 989.56 610.82 972.56 634.82 1012.56 626.82 1000.56 615.82 1020.56 620.82 1014.56 614.82 1028.57 618.82 1019.56 606.82 1027.57 589.82 1034.57 595.82 1046.57 580.82 1054.57 547.82 1051.57 536.82 1074.57 495.82 1058.98 478.95 1043.98 491.95 1030.98 495.95 1008.98 530.95 1002.98 519.95 986.98 523.95 971.56 510.82"/><polygon class="cls-1" points="988.56 568.82 986.56 589.82 974.56 602.82 962.56 599.82 934.56 599.82 919.56 581.82 876.56 569.82 865.56 576.82 848.56 571.82 819.56 552.82 827.98 538.95 815.98 532.95 822.98 503.95 843.98 482.95 846.98 454.95 853.98 441.95 842.98 438.95 843.98 403.95 863.98 402.95 877.98 408.95 876.98 413.95 885.98 411.95 895.98 424.95 936.98 444.95 981.98 480.95 971.98 510.95 962.98 531.95 961.98 555.95 983.98 552.95 988.56 568.82"/><polygon class="cls-1" points="963.06 600.32 977.06 611.32 969.06 624.32 964.06 621.32 935.06 647.32 933.06 682.32 923.06 672.32 874.06 682.32 860.06 670.32 760.06 676.32 784.06 658.32 798.06 621.32 796.06 617.32 785.06 625.32 777.06 619.32 765.06 628.32 758.06 612.32 797.98 571.95 806.98 571.95 819.98 552.95 848.98 571.95 865.98 576.95 876.98 569.95 919.98 581.95 934.98 599.95 963.06 600.32"/><path class="cls-1" d="M822.53,138.69,729.61,244.6,636.53,350.69l2.5,19.5-12,20-38,20-15-19-24,8-1.5-3.5-128-158-21,1,8-17,38-28,37-66-2-7,28-59,27-16-2-11,12-4,14-16,23-5,18-8,222,137" transform="translate(1.03 1.13)"/><polygon class="cls-1" points="886.06 412.32 896.06 425.32 937.06 445.32 982.06 481.32 988.06 471.32 990.06 446.32 998.06 444.32 982.06 422.32 983.06 393.32 974.06 386.32 970.06 373.32 973.06 350.32 955.06 334.32 955.06 341.32 916.06 336.32 901.06 327.32 886.06 303.32 925.06 202.32 823.56 139.82 730.98 245.95 740.98 256.95 731.98 290.95 748.98 277.95 766.98 271.95 780.98 288.95 777.98 303.95 787.98 294.95 809.98 311.95 829.98 308.95 835.98 316.95 845.98 313.95 860.98 320.95 867.98 319.95 869.98 336.95 881.98 339.95 881.98 371.95 875.98 383.95 877.98 391.95 888.98 400.95 886.06 412.32"/><polygon class="cls-1" points="468.57 509.82 413.57 577.82 359.57 604.82 318.57 640.82 291.57 652.82 263.57 680.82 255.56 659.82 265.57 653.82 257.57 631.82 274.57 606.82 261.57 601.82 256.56 592.82 270.57 557.82 261.57 536.82 272.57 531.82 279.57 519.82 301.57 519.82 337.57 475.82 329.57 457.82 347.57 453.82 359.57 439.82 343.57 414.82 341.57 398.82 314.57 360.82 313.57 348.82 304.57 342.82 305.57 326.82 378.57 284.82 387.57 258.82 399.34 239.09 421.98 238.95 549.98 396.95 525.98 422.95 527.98 441.95 514.98 453.95 516.98 464.95 494.98 494.95 468.57 509.82"/><polygon class="cls-1" points="933.56 682.82 923.56 710.82 898.56 717.82 901.56 746.82 892.56 763.82 876.56 764.82 895.56 798.82 918.56 813.82 903.56 827.82 903.56 849.82 815.56 941.82 804.56 960.82 756.56 987.82 744.77 987.04 741.56 986.82 741.56 967.82 713.56 949.82 694.56 951.82 649.56 921.82 644.56 901.82 650.98 876.95 668.98 864.95 673.98 840.95 759.98 772.95 714.98 713.95 724.98 693.95 759.98 675.95 859.98 669.95 873.98 681.95 922.98 671.95 933.56 682.82"/><polygon class="cls-1" points="650.56 876.82 647.56 868.82 628.56 863.82 580.56 877.82 562.56 833.82 530.56 752.82 546.56 761.82 587.56 693.82 580.56 686.82 581.56 676.82 594.56 657.82 578.56 645.82 582.56 629.82 576.56 617.82 586.56 587.82 578.56 569.82 692.98 536.95 699.98 558.95 711.98 561.95 713.98 578.95 722.98 587.95 709.98 616.95 715.98 631.95 757.98 611.95 764.98 627.95 776.98 618.95 784.98 624.95 795.98 616.95 783.98 657.95 759.56 675.82 724.56 693.82 714.56 713.82 746.56 756.82 759.56 772.82 673.56 840.82 668.56 864.82 650.56 876.82 650.56 876.82"/><polyline class="cls-1" points="562.56 833.82 523.56 840.82 525.56 868.82 481.57 874.82 490.57 902.82 430.57 905.82 413.57 856.82 392.57 844.82 372.57 851.82 351.57 836.82 344.57 805.82 349.57 775.82 345.57 727.82 313.57 700.82 296.57 697.82 281.57 706.82 268.57 704.82 259.57 692.82 263.57 680.82 291.98 652.95 318.98 640.95 359.98 604.95 413.98 577.95 468.98 509.95 511.98 549.95 552.98 556.95 578.98 569.95 586.98 587.95 576.98 617.95 582.98 629.95 578.98 645.95 594.98 657.95 581.98 676.95 580.98 686.95 587.98 693.95 546.98 761.95 530.98 752.95 562.98 833.95"/><polyline class="cls-1" points="743.56 995.82 708.56 1015.82 684.56 1044.82 666.56 1050.82 665.56 1044.82 655.56 1048.82 670.56 1087.82 646.56 1083.82 598.56 1049.82 585.56 1055.82 590.56 1069.82 582.56 1077.82 580.56 1067.82 571.56 1051.82 559.56 1044.82 547.56 1017.82 498.57 987.82 482.57 948.82 430.57 905.82 490.98 902.95 481.98 874.95 525.98 868.95 523.98 840.95 562.56 833.82 580.98 877.95 628.98 863.95 647.98 868.95 650.98 876.95 644.98 901.95 649.98 921.95 694.98 951.95 713.98 949.95 741.98 967.95 741.56 986.82 741.56 986.82 743.56 995.82"/><polygon class="cls-1" points="741.56 986.82 743.98 995.95 708.98 1015.95 684.98 1044.95 666.98 1050.95 665.98 1044.95 655.98 1048.95 670.56 1087.82 696.56 1142.82 795.56 1058.82 892.56 1061.82 907.56 1093.82 907.56 1106.82 916.56 1112.82 952.56 1113.82 969.56 1122.82 1000.56 1088.82 1016.56 1128.82 1026.57 1128.82 1039.57 1108.82 1049.57 1115.82 1086.57 965.82 1085.57 912.82 1072.57 912.82 1056.57 925.82 1059.57 912.82 1053.57 903.82 1067.57 905.82 1072.57 893.82 1083.57 893.82 1081.57 888.82 1092.57 880.82 1085.57 869.82 1056.57 875.82 1033.57 891.82 1022.56 891.82 1040.57 874.82 1059.57 868.82 1057.57 861.82 1086.57 864.82 1087.57 847.82 1029.57 836.82 1022.56 826.82 978.56 805.82 966.56 812.82 947.56 804.82 930.56 823.82 930.56 815.82 918.56 813.82 903.98 827.95 903.98 849.95 815.98 941.95 804.98 960.95 756.98 987.95 741.56 986.82"/><polygon class="cls-1" points="1061.57 790.82 1070.57 799.82 1082.57 836.82 1087.57 824.82 1076.57 794.82 1061.57 790.82"/><polyline class="cls-1" points="788.56 1595.82 780.56 1605.82 763.56 1602.82 749.56 1604.82 749.56 1598.82 740.56 1603.82 728.56 1592.82 715.56 1586.82 705.56 1583.82 693.56 1567.82 680.56 1568.82 655.56 1548.82 625.56 1541.82 618.56 1496.82 567.56 1451.82 521.56 1404.82 502.57 1397.82 475.57 1405.82 460.57 1402.82 437.57 1313.82 416.57 1284.82 398.57 1273.82 405.57 1265.82 378.57 1257.82 379.57 1225.82 366.57 1216.82 356.57 1216.82 358.57 1204.82 403.57 1182.82 413.57 1171.82 407.57 1169.82 436.57 1152.82 497.57 1132.82 511.57 1098.82 535.56 1106.82 551.56 1094.82 568.56 1094.82 582.56 1077.82 590.98 1069.95 585.98 1055.95 598.98 1049.95 646.98 1083.95 670.98 1087.95 696.98 1142.95 807.98 1411.95 807.98 1571.95 797.98 1592.95 788.98 1595.95"/><polygon class="cls-1" points="680.56 1568.82 693.56 1572.82 704.56 1588.82 726.56 1597.82 735.56 1611.82 742.56 1607.82 747.56 1614.82 753.56 1610.82 760.56 1616.82 769.56 1607.82 769.56 1620.82 774.56 1622.82 784.56 1613.82 793.56 1622.82 793.56 1651.82 812.56 1676.82 804.56 1682.82 793.56 1669.82 792.56 1676.82 802.56 1687.82 797.56 1694.82 804.56 1704.82 796.56 1718.82 799.56 1727.82 794.56 1727.82 782.56 1699.82 768.56 1694.82 755.56 1710.82 755.56 1725.82 743.56 1733.82 741.56 1748.82 760.56 1745.82 761.56 1754.82 765.56 1744.82 771.56 1757.82 780.56 1757.82 791.56 1780.82 717.56 1821.82 723.56 1801.82 734.56 1794.82 732.56 1787.82 738.56 1778.82 730.56 1763.82 719.56 1758.82 718.56 1779.82 711.56 1787.82 713.56 1795.82 718.56 1784.82 722.56 1784.82 722.56 1797.82 707.56 1816.82 707.56 1800.82 693.56 1793.82 690.56 1807.82 694.56 1816.82 685.56 1826.82 670.56 1821.82 647.56 1834.82 642.56 1820.82 638.56 1827.82 624.56 1820.82 624.56 1814.82 612.56 1806.82 610.56 1813.82 621.56 1820.82 616.56 1827.82 628.56 1836.82 611.56 1842.82 608.56 1837.82 599.56 1843.82 538.56 1834.82 526.56 1828.82 505.57 1827.82 482.57 1812.82 488.57 1762.82 484.57 1724.82 397.57 1643.82 473.57 1556.82 567.56 1451.82 618.98 1496.95 625.98 1541.95 655.98 1548.95 680.56 1568.82"/><polygon class="cls-1" points="819.56 1687.82 817.56 1713.82 821.56 1721.82 814.56 1736.82 809.56 1732.82 800.56 1734.82 800.56 1741.82 787.56 1753.82 791.56 1766.82 796.56 1768.82 846.56 1717.82 845.56 1708.82 835.56 1711.82 839.56 1701.82 845.56 1705.82 845.56 1697.82 858.56 1698.82 867.56 1680.82 866.56 1672.82 861.56 1676.82 863.56 1667.82 849.56 1668.82 833.56 1663.82 833.56 1671.82 826.56 1673.82 827.56 1682.82 819.56 1687.82"/><polygon class="cls-1" points="700.06 1807.32 708.06 1817.32 700.06 1826.32 689.45 1826.55 699.06 1816.32 700.06 1807.32"/><polygon class="cls-1" points="1026.57 1128.82 1035.57 1129.82 1037.57 1121.82 1050.57 1125.82 1042.57 1155.82 1023.56 1154.82 1002.56 1160.82 992.56 1155.82 996.56 1166.82 1031.57 1166.82 1034.57 1176.82 1017.56 1184.82 1021.56 1190.82 1013.56 1197.82 1000.56 1189.82 987.56 1189.82 984.56 1194.82 996.56 1200.82 993.56 1210.82 975.56 1212.82 975.56 1219.82 984.56 1219.82 984.56 1226.82 994.43 1217.85 995.56 1216.82 999.56 1221.82 992.56 1245.82 997.56 1251.82 990.56 1254.82 993.56 1260.82 981.56 1266.82 961.56 1256.82 946.56 1260.82 977.56 1275.82 1000.56 1271.82 1002.56 1283.82 989.56 1288.82 979.56 1312.82 986.56 1337.82 978.56 1337.82 978.56 1343.82 971.56 1347.82 974.56 1352.82 963.56 1366.82 966.56 1374.82 949.56 1394.82 943.56 1435.82 957.56 1444.82 954.56 1463.82 962.56 1466.82 942.56 1488.82 936.56 1487.82 939.56 1499.82 931.56 1501.82 924.56 1517.82 925.56 1526.82 901.56 1527.82 901.56 1541.82 893.56 1544.82 894.56 1560.82 880.56 1555.82 875.56 1564.82 860.56 1568.82 849.56 1588.82 842.56 1585.82 842.56 1598.82 871.56 1625.82 864.56 1648.82 847.56 1646.82 841.56 1620.82 824.56 1615.82 806.56 1621.82 798.56 1611.82 800.56 1605.82 792.56 1609.82 788.56 1595.82 797.56 1592.82 807.56 1571.82 807.56 1411.82 696.56 1142.82 795.98 1058.95 892.98 1061.95 907.98 1093.95 907.98 1106.95 916.98 1112.95 952.98 1113.95 969.98 1122.95 1000.98 1088.95 1016.98 1128.95 1026.57 1128.82"/><polygon class="cls-1" points="1032.57 1207.82 1018.56 1247.82 1016.56 1311.82 1032.57 1207.82"/><polygon class="cls-1" points="1010.56 1366.82 1003.56 1391.82 1008.56 1396.82 1010.56 1366.82"/><polygon class="cls-1" points="995.56 1395.82 995.56 1406.82 1009.56 1421.82 1007.56 1404.82 995.56 1395.82"/><polygon class="cls-1" points="983.56 1425.82 982.56 1434.82 993.56 1433.82 993.56 1426.82 983.56 1425.82"/><polygon class="cls-1" points="1003.06 1422.32 985.06 1451.32 987.06 1462.32 1004.06 1434.32 1003.06 1422.32"/><polygon class="cls-1" points="964.56 1507.82 944.56 1524.82 942.56 1541.82 964.56 1507.82"/><polygon class="cls-1" points="473.57 1556.82 457.57 1537.82 449.57 1509.82 431.57 1483.82 399.57 1473.82 373.57 1452.82 374.57 1437.82 359.57 1422.82 352.57 1405.82 342.57 1404.82 337.57 1412.82 331.57 1405.82 338.57 1396.82 327.57 1374.82 328.57 1345.82 294.57 1314.82 303.57 1291.82 297.57 1270.82 301.57 1247.82 308.57 1246.82 315.57 1253.82 325.57 1242.82 337.57 1242.82 344.57 1236.82 335.57 1231.82 356.57 1216.82 366.98 1216.95 379.98 1225.95 378.98 1257.95 405.98 1265.95 398.98 1273.95 416.98 1284.95 437.98 1313.95 460.98 1402.95 475.98 1405.95 502.98 1397.95 521.98 1404.95 567.98 1451.95 473.57 1556.82"/><polyline class="cls-1" points="397.57 1643.82 342.57 1593.82 250.56 1507.82 216.56 1508.82 214.56 1497.82 164.56 1482.82 128.56 1449.82 111.56 1417.82 113.56 1407.82 102.56 1399.82 126.56 1372.82 165.56 1352.82 203.56 1351.82 266.57 1319.82 294.57 1314.82 328.98 1345.95 327.98 1374.95 338.98 1396.95 331.98 1405.95 337.98 1412.95 342.98 1404.95 352.98 1405.95 359.98 1422.95 374.98 1437.95 373.98 1452.95 399.98 1473.95 431.98 1483.95 449.98 1509.95 457.98 1537.95 473.98 1556.95 397.57 1643.82"/><polyline class="cls-1" points="342.57 1593.82 329.57 1691.82 220.56 1603.82 173.56 1657.82 149.56 1665.82 133.56 1692.82 108.56 1687.82 98.56 1731.82 104.56 1738.82 98.56 1746.82 92.56 1755.82 81.56 1741.82 63.56 1706.82 13.57 1683.82 12.57 1654.82 23.57 1660.82 24.57 1623.82 19.57 1616.82 43.56 1588.82 6.57 1563.82 2.56 1548.82 5.57 1531.82 29.57 1503.82 39.56 1478.82 53.56 1460.82 59.56 1461.82 73.56 1416.82 102.56 1399.82 113.98 1407.95 111.98 1417.95 128.98 1449.95 164.98 1482.95 214.98 1497.95 216.98 1508.95 250.98 1507.95 341.98 1593.95"/><polygon class="cls-1" points="98.56 1746.82 118.56 1780.82 158.56 1798.82 168.56 1822.82 185.56 1839.82 187.56 1830.82 213.56 1834.82 220.56 1856.82 243.56 1866.82 252.56 1882.82 264.57 1888.82 274.57 1912.82 269.57 1921.82 288.57 1937.82 310.57 1911.82 331.57 1913.82 361.57 1903.82 368.57 1910.82 365.57 1927.82 402.57 1930.82 445.57 1942.82 436.57 1907.82 455.57 1892.82 467.98 1830.95 481.98 1812.95 488.98 1761.95 484.98 1724.95 341.98 1593.95 328.98 1691.95 220.98 1603.95 172.98 1657.95 148.98 1665.95 133.98 1692.95 107.98 1686.95 98.98 1731.95 103.98 1738.95 98.56 1746.82"/><polygon class="cls-1" points="611.56 1842.82 651.56 1846.82 641.56 1876.82 657.56 1866.82 655.56 1854.82 670.56 1857.82 693.56 1839.82 690.56 1852.82 674.56 1864.82 625.56 1917.82 611.56 1925.82 617.56 1936.82 608.56 1945.82 599.56 1925.82 587.56 1936.82 587.56 1950.82 594.56 1958.82 594.56 1950.82 604.56 1949.82 583.56 1990.82 589.56 2011.82 539.56 2077.82 543.56 2054.82 531.56 2074.82 525.56 2072.82 526.56 2063.82 520.56 2069.82 520.56 2077.82 504.57 2074.82 502.57 2088.82 494.57 2085.82 486.57 2091.82 495.57 2102.82 500.57 2096.82 509.57 2103.82 522.56 2083.82 531.56 2104.82 478.57 2153.82 470.57 2144.82 469.57 2154.82 438.57 2163.82 412.57 2162.82 404.57 2153.82 415.57 2127.82 409.57 2127.82 417.57 2091.82 464.57 1984.82 464.57 1963.82 445.57 1942.82 436.98 1907.95 455.98 1892.95 467.98 1830.95 481.98 1812.95 505.98 1827.95 526.98 1828.95 538.98 1834.95 599.98 1843.95 608.98 1837.95 611.56 1842.82"/><path class="cls-1" d="M1086,481.82" transform="translate(1.03 1.13)"/><polygon class="cls-1" points="972.06 511.32 982.06 481.32 988.06 471.32 990.06 446.32 998.06 444.32 982.06 422.32 983.06 393.32 974.06 386.32 970.06 373.32 973.06 350.32 955.06 334.32 955.06 341.32 916.06 336.32 901.06 327.32 886.06 303.32 925.06 202.32 1136.07 323.32 1118.07 404.32 1087.07 483.32 1075.07 496.32 1059.07 479.32 1044.07 492.32 1031.07 496.32 1009.06 531.32 1003.06 520.32 987.06 524.32 972.06 511.32"/></svg>